<svg width="16" height="16" viewBox="0 0 16 16" fill="none" xmlns="http://www.w3.org/2000/svg">
<path d="M5.9987 14.6663H9.9987C13.332 14.6663 14.6654 13.333 14.6654 9.99967V5.99967C14.6654 2.66634 13.332 1.33301 9.9987 1.33301H5.9987C2.66536 1.33301 1.33203 2.66634 1.33203 5.99967V9.99967C1.33203 13.333 2.66536 14.6663 5.9987 14.6663Z" stroke="white" stroke-linecap="round" stroke-linejoin="round"/>
<path d="M4.66797 5.5C5.33464 6.16667 6.4213 6.16667 7.09464 5.5" stroke="white" stroke-miterlimit="10" stroke-linecap="round" stroke-linejoin="round"/>
<path d="M8.90625 5.5C9.57292 6.16667 10.6596 6.16667 11.3329 5.5" stroke="white" stroke-miterlimit="10" stroke-linecap="round" stroke-linejoin="round"/>
<path d="M5.6 8.66699H10.4C10.7333 8.66699 11 8.93366 11 9.26699C11 10.927 9.66 12.267 8 12.267C6.34 12.267 5 10.927 5 9.26699C5 8.93366 5.26667 8.66699 5.6 8.66699Z" stroke="white" stroke-miterlimit="10" stroke-linecap="round" stroke-linejoin="round"/>
</svg>
