<svg width="189" height="19" viewBox="0 0 189 19" fill="none" xmlns="http://www.w3.org/2000/svg">
<path d="M18.0998 9.20791C18.0998 4.21119 14.0486 0.159983 9.05186 0.159983C4.05514 0.159983 0.00392597 4.21119 0.00392597 9.20791C0.00392597 13.7243 3.31245 17.4672 7.63812 18.1458V11.8235H5.3407V9.20716H7.63812V7.21511C7.63812 4.94785 8.98927 3.69471 11.056 3.69471C12.0452 3.69471 13.0812 3.8719 13.0812 3.8719V6.09844H11.9397C10.8154 6.09844 10.4648 6.79589 10.4648 7.51143V9.20791H12.9741L12.573 11.8243H10.4648V18.1465C14.7913 17.4672 18.0998 13.7236 18.0998 9.20791Z" fill="#407BFF"/>
<path d="M43.2235 0.104038C40.7655 0.104038 40.4586 0.115348 39.4935 0.158326C38.5299 0.203565 37.8739 0.355118 37.2971 0.579054C36.7022 0.809777 36.197 1.11967 35.6941 1.62258C35.1912 2.1255 34.8805 2.62992 34.6506 3.22557C34.4266 3.80238 34.2743 4.45835 34.2298 5.42196C34.1846 6.38707 34.1755 6.69395 34.1755 9.15197C34.1755 11.61 34.1869 11.9169 34.2298 12.882C34.2751 13.8448 34.4266 14.5016 34.6506 15.0784C34.8781 15.682 35.2341 16.229 35.6941 16.6814C36.1464 17.1413 36.6934 17.4974 37.2971 17.7249C37.8746 17.9481 38.5306 18.1011 39.4935 18.1456C40.4586 18.1908 40.7655 18.1999 43.2235 18.1999C45.6815 18.1999 45.9884 18.1886 46.9535 18.1456C47.9163 18.1004 48.5731 17.9481 49.1499 17.7249C49.7535 17.4974 50.3005 17.1413 50.7529 16.6814C51.2128 16.229 51.5689 15.682 51.7964 15.0784C52.0196 14.5016 52.1726 13.8448 52.2171 12.882C52.2624 11.9169 52.2714 11.61 52.2714 9.15197C52.2714 6.69395 52.2601 6.38707 52.2171 5.42196C52.1719 4.45911 52.0196 3.80163 51.7964 3.22557C51.5689 2.6219 51.2128 2.07493 50.7529 1.62258C50.3013 1.16168 49.7541 0.805462 49.1499 0.579054C48.5731 0.355118 47.9163 0.202811 46.9535 0.158326C45.9884 0.113086 45.6815 0.104038 43.2235 0.104038ZM43.2235 1.73267C45.6385 1.73267 45.9265 1.74473 46.8803 1.7862C47.7625 1.82767 48.2413 1.97394 48.5595 2.09911C48.9832 2.26272 49.2833 2.45876 49.6015 2.77469C49.9174 3.09136 50.1135 3.39221 50.2771 3.81595C50.4007 4.13414 50.5485 4.61292 50.5885 5.4951C50.6315 6.44965 50.6413 6.73617 50.6413 9.15197C50.6413 11.5678 50.63 11.855 50.5855 12.8088C50.5395 13.691 50.3925 14.1698 50.268 14.488C50.1211 14.8807 49.8897 15.2365 49.5902 15.53C49.2978 15.8296 48.9424 16.0604 48.5497 16.2056C48.233 16.3292 47.7467 16.477 46.8645 16.517C45.9039 16.56 45.6212 16.5698 43.2009 16.5698C40.7805 16.5698 40.497 16.5585 39.5372 16.514C38.6543 16.468 38.1679 16.3209 37.8513 16.1965C37.4582 16.0515 37.1028 15.8199 36.8115 15.5187C36.5088 15.2283 36.2766 14.8723 36.1329 14.4782C36.0085 14.1615 35.8622 13.6752 35.8162 12.793C35.7823 11.843 35.7702 11.5497 35.7702 9.14066C35.7702 6.73165 35.7823 6.43684 35.8162 5.47549C35.8622 4.59332 36.0085 4.10775 36.1329 3.79107C36.2913 3.36129 36.4941 3.06724 36.8115 2.7498C37.1274 2.43388 37.4222 2.2303 37.8513 2.07272C38.1679 1.94755 38.6437 1.80053 39.5259 1.75529C40.4872 1.72136 40.77 1.71005 43.1895 1.71005L43.2235 1.73267ZM43.2235 4.50586C42.6133 4.50586 42.0092 4.62603 41.4455 4.85952C40.8818 5.09301 40.3696 5.43524 39.9382 5.86667C39.5067 6.2981 39.1645 6.81029 38.931 7.37398C38.6975 7.93767 38.5774 8.54183 38.5774 9.15197C38.5774 9.7621 38.6975 10.3663 38.931 10.93C39.1645 11.4937 39.5067 12.0058 39.9382 12.4373C40.3696 12.8687 40.8818 13.2109 41.4455 13.4444C42.0092 13.6779 42.6133 13.7981 43.2235 13.7981C44.4557 13.7981 45.6375 13.3086 46.5088 12.4373C47.3801 11.566 47.8696 10.3842 47.8696 9.15197C47.8696 7.91974 47.3801 6.73799 46.5088 5.86667C45.6375 4.99536 44.4557 4.50586 43.2235 4.50586ZM43.2235 12.1679C41.5571 12.1679 40.2075 10.8183 40.2075 9.15197C40.2075 7.48564 41.5571 6.13599 43.2235 6.13599C44.8898 6.13599 46.2395 7.48564 46.2395 9.15197C46.2395 10.8183 44.8898 12.1679 43.2235 12.1679ZM49.1393 4.32264C49.1288 4.60359 49.0099 4.86955 48.8074 5.06462C48.6049 5.25969 48.3347 5.36867 48.0536 5.36867C47.7724 5.36867 47.5022 5.25969 47.2997 5.06462C47.0973 4.86955 46.9783 4.60359 46.9678 4.32264C46.9678 4.03468 47.0822 3.75851 47.2858 3.55489C47.4894 3.35128 47.7656 3.23688 48.0536 3.23688C48.3415 3.23688 48.6177 3.35128 48.8213 3.55489C49.0249 3.75851 49.1393 4.03468 49.1393 4.32264Z" fill="#407BFF"/>
<path d="M86.4233 3.54902C85.7458 3.84731 85.0281 4.0442 84.2933 4.13337C85.0669 3.66824 85.6461 2.93901 85.9241 2.08024C85.2071 2.49871 84.4124 2.80332 83.5664 2.97297C83.0083 2.37613 82.2687 1.98028 81.4625 1.84688C80.6563 1.71348 79.8286 1.85001 79.108 2.23525C78.3874 2.6205 77.8141 3.23291 77.4772 3.97738C77.1403 4.72186 77.0587 5.55673 77.2449 6.35237C74.1611 6.20685 71.4294 4.72525 69.5994 2.4874C69.266 3.05243 69.0924 3.69747 69.0973 4.35353C69.0973 5.64286 69.7532 6.77612 70.747 7.44189C70.158 7.42326 69.582 7.26401 69.0671 6.97743V7.02267C69.0663 7.87962 69.3623 8.7104 69.9047 9.37386C70.447 10.0373 71.2024 10.4926 72.0424 10.6622C71.4982 10.8079 70.9283 10.8298 70.3745 10.7263C70.6133 11.4635 71.076 12.1078 71.6982 12.5696C72.3204 13.0314 73.0712 13.2877 73.8459 13.3027C72.5335 14.3324 70.9132 14.8914 69.245 14.8898C68.9515 14.8898 68.6574 14.873 68.3629 14.8393C70.0638 15.9281 72.0413 16.5062 74.0608 16.5049C80.8867 16.5049 84.6152 10.853 84.6152 5.96029C84.6152 5.80196 84.6152 5.64362 84.6039 5.48528C85.3326 4.96159 85.961 4.31078 86.4587 3.5641L86.4233 3.54902Z" fill="#407BFF"/>
<path d="M111.634 14.3349C108.601 14.3349 107.246 12.8428 107.246 11.7231C107.246 11.1463 107.669 10.7459 108.251 10.7459C109.55 10.7459 109.211 12.6136 111.634 12.6136C112.871 12.6136 113.557 11.9387 113.557 11.2481C113.557 10.8326 113.354 10.3734 112.536 10.1706L109.839 9.49579C107.668 8.9499 107.274 7.77216 107.274 6.66756C107.274 4.37014 109.431 3.50757 111.457 3.50757C113.321 3.50757 115.524 4.5428 115.524 5.9196C115.524 6.51073 115.005 6.85455 114.428 6.85455C113.321 6.85455 113.525 5.31866 111.289 5.31866C110.181 5.31866 109.56 5.81931 109.56 6.53787C109.56 7.25643 110.43 7.4864 111.187 7.65906L113.175 8.10166C115.355 8.591 115.908 9.87053 115.908 11.0754C115.908 12.9423 114.473 14.3357 111.593 14.3357M119.95 10.6547L119.929 10.7565L119.895 10.5755C119.907 10.6094 119.929 10.6313 119.94 10.666C120.03 10.157 120.076 9.6383 120.076 9.11879C120.077 7.99597 119.855 6.88414 119.425 5.847C118.995 4.80986 118.364 3.86779 117.569 3.07478C116.79 2.29865 115.87 1.67788 114.859 1.24559C113.865 0.769815 112.747 0.544371 111.595 0.544371C111.053 0.544371 110.507 0.59715 109.98 0.698186L110.069 0.743425L109.889 0.718543L109.979 0.699694C109.25 0.309339 108.436 0.104749 107.609 0.104038C106.26 0.104038 104.993 0.630326 104.038 1.58714C103.567 2.05673 103.194 2.61491 102.94 3.22949C102.686 3.84406 102.556 4.50286 102.558 5.16786C102.558 6.02968 102.778 6.87566 103.194 7.62438L103.21 7.53088L103.24 7.71109L103.194 7.62438C102.911 9.24401 103.098 10.911 103.732 12.4281C104.153 13.4488 104.775 14.3743 105.562 15.1492C106.338 15.9326 107.258 16.5579 108.273 16.9905C109.324 17.4429 110.442 17.6676 111.593 17.6676C112.09 17.6676 112.599 17.6223 113.084 17.5326L112.994 17.4859L113.175 17.5206L113.073 17.5432C113.83 17.9744 114.686 18.2007 115.557 18.1999C116.22 18.2019 116.877 18.072 117.49 17.8179C118.102 17.5639 118.658 17.1906 119.126 16.7198C119.596 16.2502 119.969 15.692 120.223 15.0774C120.477 14.4628 120.607 13.804 120.605 13.1391C120.601 12.2772 120.38 11.4303 119.962 10.6765" fill="#407BFF"/>
<path d="M147.281 10.7257V4.87532C148.428 5.67841 149.805 6.13719 151.239 6.13719V3.90027C150.378 3.7282 149.633 3.26935 149.059 2.63843C148.142 2.06486 147.511 1.08977 147.339 0H145.216V11.4714C145.159 12.7333 144.127 13.7657 142.807 13.7657C142.004 13.7657 141.316 13.3642 140.857 12.7906C140.112 12.4465 139.595 11.6434 139.595 10.7257C139.595 9.40655 140.685 8.3168 142.004 8.3168C142.234 8.3168 142.463 8.37412 142.693 8.43146V6.19454C139.825 6.25191 137.531 8.60359 137.531 11.4714C137.531 12.848 138.047 14.1098 138.965 15.0849C139.825 15.6584 140.857 16.06 142.004 16.06C144.93 16.0026 147.281 13.5936 147.281 10.7257Z" fill="#407BFF"/>
<path d="M176.885 11.132V5.16076L182.133 8.14644L176.885 11.132ZM188.559 3.28186C188.328 2.41235 187.648 1.72753 186.784 1.49514C185.218 1.07277 178.939 1.07277 178.939 1.07277C178.939 1.07277 172.66 1.07277 171.094 1.49514C170.23 1.72753 169.55 2.41235 169.319 3.28186C168.899 4.85791 168.899 8.14636 168.899 8.14636C168.899 8.14636 168.899 11.4346 169.319 13.0108C169.55 13.8804 170.23 14.5651 171.094 14.7977C172.66 15.2198 178.939 15.2198 178.939 15.2198C178.939 15.2198 185.218 15.2198 186.784 14.7977C187.648 14.5651 188.328 13.8804 188.559 13.0108C188.979 11.4346 188.979 8.14626 188.979 8.14626C188.979 8.14626 188.979 4.85791 188.559 3.28186Z" fill="#407BFF"/>
</svg>
