<svg width="152" height="23" viewBox="0 0 152 23" fill="none" xmlns="http://www.w3.org/2000/svg">
<path fill-rule="evenodd" clip-rule="evenodd" d="M13.4001 8.53429H20.5073L14.7595 12.6459L14.7606 12.6495L11.2146 15.1897L15.2537 14.1554L15.0156 13.4263L16.9472 19.3112L11.1994 15.1869L5.45142 19.3112L7.65221 12.6459L1.90427 8.52152L9.01151 8.53429L11.2123 1.86893L13.4001 8.53429ZM15.0156 13.4263L14.7617 12.6486L14.7606 12.6495L15.0156 13.4263Z" fill="#407BFF"/>
<path fill-rule="evenodd" clip-rule="evenodd" d="M45.7962 8.53429H52.9035L47.1556 12.6459L47.1567 12.6495L43.6107 15.1897L47.6499 14.1554L47.4118 13.4263L49.3434 19.3112L43.5955 15.1869L37.8476 19.3112L40.0484 12.6459L34.3004 8.52152L41.4077 8.53429L43.6084 1.86893L45.7962 8.53429ZM47.4118 13.4263L47.1579 12.6486L47.1567 12.6495L47.4118 13.4263Z" fill="#407BFF"/>
<path fill-rule="evenodd" clip-rule="evenodd" d="M78.1885 8.53429H85.2957L79.5478 12.6459L79.549 12.6495L76.0029 15.1897L80.0421 14.1554L79.804 13.4263L81.7356 19.3112L75.9877 15.1869L70.2398 19.3112L72.4406 12.6459L66.6926 8.52152L73.7999 8.53429L76.0007 1.86893L78.1885 8.53429ZM79.804 13.4263L79.5501 12.6486L79.549 12.6495L79.804 13.4263Z" fill="#407BFF"/>
<path fill-rule="evenodd" clip-rule="evenodd" d="M110.581 8.53429H117.688L111.94 12.6459L111.941 12.6495L108.395 15.1897L112.434 14.1554L112.196 13.4263L114.128 19.3112L108.38 15.1869L102.632 19.3112L104.833 12.6459L99.0849 8.52152L106.192 8.53429L108.393 1.86893L110.581 8.53429ZM112.196 13.4263L111.942 12.6486L111.941 12.6495L112.196 13.4263Z" fill="#407BFF"/>
<path fill-rule="evenodd" clip-rule="evenodd" d="M142.977 8.53429H150.084L144.336 12.6459L144.337 12.6495L140.791 15.1897L144.83 14.1554L144.592 13.4263L146.524 19.3112L140.776 15.1869L135.028 19.3112L137.229 12.6459L131.481 8.52152L138.588 8.53429L140.789 1.86893L142.977 8.53429ZM144.592 13.4263L144.338 12.6486L144.337 12.6495L144.592 13.4263Z" fill="#407BFF"/>
</svg>
