<svg width="16" height="16" viewBox="0 0 16 16" fill="none" xmlns="http://www.w3.org/2000/svg">
<path d="M1.33203 1.33301H2.49203C3.21203 1.33301 3.7787 1.95301 3.7187 2.66634L3.16536 9.30634C3.07203 10.393 3.93203 11.3263 5.02536 11.3263H12.1254C13.0854 11.3263 13.9254 10.5397 13.9987 9.58634L14.3587 4.58634C14.4387 3.47968 13.5987 2.57967 12.4854 2.57967H3.8787" stroke="white" stroke-miterlimit="10" stroke-linecap="round" stroke-linejoin="round"/>
<path d="M10.8333 14.6667C11.2936 14.6667 11.6667 14.2936 11.6667 13.8333C11.6667 13.3731 11.2936 13 10.8333 13C10.3731 13 10 13.3731 10 13.8333C10 14.2936 10.3731 14.6667 10.8333 14.6667Z" stroke="white" stroke-miterlimit="10" stroke-linecap="round" stroke-linejoin="round"/>
<path d="M5.5013 14.6667C5.96154 14.6667 6.33464 14.2936 6.33464 13.8333C6.33464 13.3731 5.96154 13 5.5013 13C5.04106 13 4.66797 13.3731 4.66797 13.8333C4.66797 14.2936 5.04106 14.6667 5.5013 14.6667Z" stroke="white" stroke-miterlimit="10" stroke-linecap="round" stroke-linejoin="round"/>
<path d="M6 5.33301H14" stroke="white" stroke-miterlimit="10" stroke-linecap="round" stroke-linejoin="round"/>
</svg>
